<svg xmlns="http://www.w3.org/2000/svg" version="1.1" viewBox="-5.0 0.0 110.0 100.0" fill="#666">
 <path d="m71.875 53.125c-12.062 0-21.875 9.8125-21.875 21.875s9.8125 21.875 21.875 21.875c4.6719 0 9.125-1.4531 12.891-4.2188 0.6875-0.51562 0.84375-1.4844 0.32812-2.1875s-1.4844-0.84375-2.1875-0.32812c-3.2188 2.3594-7.0469 3.625-11.047 3.625-10.344 0-18.75-8.4062-18.75-18.75s8.4062-18.75 18.75-18.75 18.75 8.4062 18.75 18.75c0 4-1.25 7.8281-3.625 11.047-0.51562 0.70312-0.35938 1.6719 0.32812 2.1875s1.6719 0.35938 2.1875-0.32812c2.7656-3.7656 4.2188-8.2188 4.2188-12.891 0-12.062-9.8125-21.875-21.875-21.875z"/>
 <path d="m80.797 66.078c-0.60938-0.60938-1.5938-0.60938-2.2031 0l-6.7031 6.7031-6.7031-6.7031c-0.60938-0.60938-1.5938-0.60938-2.2031 0s-0.60938 1.5938 0 2.2031l6.7031 6.7031-6.7031 6.7031c-0.60938 0.60938-0.60938 1.5938 0 2.2031 0.3125 0.3125 0.70312 0.45312 1.1094 0.45312s0.79688-0.15625 1.1094-0.45312l6.7031-6.7031 6.7031 6.7031c0.3125 0.3125 0.70312 0.45312 1.1094 0.45312s0.79688-0.15625 1.1094-0.45312c0.60938-0.60938 0.60938-1.5938 0-2.2031l-6.7031-6.7031 6.7031-6.7031c0.60938-0.60938 0.60938-1.5938 0-2.2031z"/>
 <path d="m31.25 18.75h18.75c2.5781 0 4.6875-2.1094 4.6875-4.6875v-9.375c0-0.85938-0.70312-1.5625-1.5625-1.5625h-25c-0.85938 0-1.5625 0.70312-1.5625 1.5625v9.375c0 2.5781 2.1094 4.6875 4.6875 4.6875zm-1.5625-12.5h21.875v7.8125c0 0.85938-0.70312 1.5625-1.5625 1.5625h-18.75c-0.85938 0-1.5625-0.70312-1.5625-1.5625z"/>
 <path d="m49.359 87.5h-35.297c-2.5781 0-4.6875-2.1094-4.6875-4.6875v-51.562c0-0.85938-0.70312-1.5625-1.5625-1.5625s-1.5625 0.70312-1.5625 1.5625v51.562c0 4.3125 3.5 7.8125 7.8125 7.8125h35.297c0.85938 0 1.5625-0.70312 1.5625-1.5625s-0.70312-1.5625-1.5625-1.5625z"/>
 <path d="m7.8125 26.562c0.85938 0 1.5625-0.70312 1.5625-1.5625v-10.938c0-2.5781 2.1094-4.6875 4.6875-4.6875h7.8125c0.85938 0 1.5625-0.70312 1.5625-1.5625s-0.70312-1.5625-1.5625-1.5625h-7.8125c-4.3125 0-7.8125 3.5-7.8125 7.8125v10.938c0 0.85938 0.70312 1.5625 1.5625 1.5625z"/>
 <path d="m59.375 9.375h7.8125c2.5781 0 4.6875 2.1094 4.6875 4.6875v34.422c0 0.85938 0.70312 1.5625 1.5625 1.5625s1.5625-0.70312 1.5625-1.5625v-34.422c0-4.3125-3.5-7.8125-7.8125-7.8125h-7.8125c-0.85938 0-1.5625 0.70312-1.5625 1.5625s0.70312 1.5625 1.5625 1.5625z"/>
 <path d="m21.875 12.5h-7.8125c-0.85938 0-1.5625 0.70312-1.5625 1.5625v54.688s0.015625 0.0625 0.015625 0.09375c0 0.14062 0.03125 0.26562 0.078125 0.40625l0.046875 0.14062c0.078125 0.17188 0.17188 0.32812 0.3125 0.45312l14.062 14.062c0.14062 0.14062 0.32812 0.26562 0.51562 0.34375s0.39062 0.125 0.59375 0.125h18.375c0.85938 0 1.5625-0.70312 1.5625-1.5625s-0.70312-1.5625-1.5625-1.5625h-16.812v-12.5c0-0.85938-0.70312-1.5625-1.5625-1.5625h-12.5v-51.562h6.25c0.85938 0 1.5625-0.70312 1.5625-1.5625s-0.70312-1.5625-1.5625-1.5625zm4.6875 57.812v8.7344l-8.7344-8.7344z"/>
 <path d="m59.375 15.625h6.25v33.25c0 0.85938 0.70312 1.5625 1.5625 1.5625s1.5625-0.70312 1.5625-1.5625v-34.812c0-0.85938-0.70312-1.5625-1.5625-1.5625h-7.8125c-0.85938 0-1.5625 0.70312-1.5625 1.5625s0.70312 1.5625 1.5625 1.5625z"/>
 <path d="m29.688 26.562c0-0.85938-0.70312-1.5625-1.5625-1.5625h-6.25c-0.85938 0-1.5625 0.70312-1.5625 1.5625v6.25c0 0.85938 0.70312 1.5625 1.5625 1.5625h6.25c0.85938 0 1.5625-0.70312 1.5625-1.5625zm-3.125 4.6875h-3.125v-3.125h3.125z"/>
 <path d="m59.375 25h-21.875c-0.85938 0-1.5625 0.70312-1.5625 1.5625s0.70312 1.5625 1.5625 1.5625h21.875c0.85938 0 1.5625-0.70312 1.5625-1.5625s-0.70312-1.5625-1.5625-1.5625z"/>
 <path d="m37.5 34.375h12.5c0.85938 0 1.5625-0.70312 1.5625-1.5625s-0.70312-1.5625-1.5625-1.5625h-12.5c-0.85938 0-1.5625 0.70312-1.5625 1.5625s0.70312 1.5625 1.5625 1.5625z"/>
 <path d="m29.688 40.625c0-0.85938-0.70312-1.5625-1.5625-1.5625h-6.25c-0.85938 0-1.5625 0.70312-1.5625 1.5625v6.25c0 0.85938 0.70312 1.5625 1.5625 1.5625h6.25c0.85938 0 1.5625-0.70312 1.5625-1.5625zm-3.125 4.6875h-3.125v-3.125h3.125z"/>
 <path d="m60.938 40.625c0-0.85938-0.70312-1.5625-1.5625-1.5625h-21.875c-0.85938 0-1.5625 0.70312-1.5625 1.5625s0.70312 1.5625 1.5625 1.5625h21.875c0.85938 0 1.5625-0.70312 1.5625-1.5625z"/>
 <path d="m37.5 48.438h12.5c0.85938 0 1.5625-0.70312 1.5625-1.5625s-0.70312-1.5625-1.5625-1.5625h-12.5c-0.85938 0-1.5625 0.70312-1.5625 1.5625s0.70312 1.5625 1.5625 1.5625z"/>
 <path d="m28.125 53.125h-6.25c-0.85938 0-1.5625 0.70312-1.5625 1.5625v6.25c0 0.85938 0.70312 1.5625 1.5625 1.5625h6.25c0.85938 0 1.5625-0.70312 1.5625-1.5625v-6.25c0-0.85938-0.70312-1.5625-1.5625-1.5625zm-1.5625 6.25h-3.125v-3.125h3.125z"/>
 <path d="m56.25 54.688c0-0.85938-0.70312-1.5625-1.5625-1.5625h-17.188c-0.85938 0-1.5625 0.70312-1.5625 1.5625s0.70312 1.5625 1.5625 1.5625h17.188c0.85938 0 1.5625-0.70312 1.5625-1.5625z"/>
 <path d="m51.562 60.938c0-0.85938-0.70312-1.5625-1.5625-1.5625h-12.5c-0.85938 0-1.5625 0.70312-1.5625 1.5625s0.70312 1.5625 1.5625 1.5625h12.5c0.85938 0 1.5625-0.70312 1.5625-1.5625z"/></svg>